<svg xmlns="http://www.w3.org/2000/svg" xmlns:xlink="http://www.w3.org/1999/xlink"><symbol id="icon-arrow" viewBox="0 0 39 68"><path fill-rule="evenodd" d="M1.498 58.415l24.539-24.891L1.482 8.616c-1.937-1.965-1.937-5.15 0-7.114a4.908 4.908 0 017.013 0s18.232 18.477 28.069 28.457c1.937 1.964 1.937 5.149 0 7.114L8.511 65.53a4.91 4.91 0 01-7.013 0 5.082 5.082 0 010-7.115z"/></symbol><symbol id="icon-postmark" viewBox="0 0 60 60"><path d="M60 37v23H37a8 8 0 00-16 0H0V37a8 8 0 008-8 8 8 0 00-8-8V0h21a8 8 0 008 8 8 8 0 008-8h23v21a8 8 0 000 16z" fill-rule="evenodd"/></symbol> <view id="icon-arrow-view-light" viewBox="0 0 39 68"/><view id="icon-arrow-view-grey" viewBox="0 78 39 68"/><view id="icon-arrow-view-dark" viewBox="0 156 39 68"/><view id="icon-arrow-view-white" viewBox="0 234 39 68"/><view id="icon-postmark-view-light" viewBox="0 312 60 60"/><view id="icon-postmark-view-grey" viewBox="0 382 60 60"/><view id="icon-postmark-view-dark" viewBox="0 452 60 60"/><view id="icon-postmark-view-white" viewBox="0 522 60 60"/> <use xlink:href="#icon-arrow" x="0" y="0" width="39" height="68" style="fill:#eeeeee"/><use xlink:href="#icon-arrow" x="0" y="78" width="39" height="68" style="fill:#888888"/><use xlink:href="#icon-arrow" x="0" y="156" width="39" height="68" style="fill:#444444"/><use xlink:href="#icon-arrow" x="0" y="234" width="39" height="68" style="fill:#ffffff"/><use xlink:href="#icon-postmark" x="0" y="312" width="60" height="60" style="fill:#eeeeee"/><use xlink:href="#icon-postmark" x="0" y="382" width="60" height="60" style="fill:#888888"/><use xlink:href="#icon-postmark" x="0" y="452" width="60" height="60" style="fill:#444444"/><use xlink:href="#icon-postmark" x="0" y="522" width="60" height="60" style="fill:#ffffff"/></svg>