<svg xmlns="http://www.w3.org/2000/svg" width="52" height="50.234" viewBox="0 0 52 50.234"><g transform="translate(-305 -187)"><path d="M9.1,0H1.836V-14H3.477v12.52H9.1Zm7.109.234A6.147,6.147,0,0,1,11.44-1.729,7.28,7.28,0,0,1,9.648-6.836a7.714,7.714,0,0,1,1.826-5.391,6.378,6.378,0,0,1,4.971-2.012,6.009,6.009,0,0,1,4.673,1.953,7.307,7.307,0,0,1,1.772,5.107,7.739,7.739,0,0,1-1.816,5.42A6.26,6.26,0,0,1,16.211.234Zm.117-12.988a4.515,4.515,0,0,0-3.584,1.592,6.162,6.162,0,0,0-1.377,4.18A6.205,6.205,0,0,0,12.71-2.817a4.379,4.379,0,0,0,3.5,1.577,4.6,4.6,0,0,0,3.633-1.5,6.146,6.146,0,0,0,1.328-4.209,6.422,6.422,0,0,0-1.289-4.287A4.42,4.42,0,0,0,16.328-12.754ZM36.113-.957A9.365,9.365,0,0,1,31.426.234,6.405,6.405,0,0,1,26.577-1.7a7.092,7.092,0,0,1-1.851-5.117,7.282,7.282,0,0,1,2.056-5.337,7.008,7.008,0,0,1,5.21-2.085,8.866,8.866,0,0,1,3.838.742v1.816a7.371,7.371,0,0,0-4.023-1.074,5.027,5.027,0,0,0-3.857,1.621,5.929,5.929,0,0,0-1.5,4.2,5.932,5.932,0,0,0,1.4,4.175A4.895,4.895,0,0,0,31.631-1.24a5.854,5.854,0,0,0,2.842-.654V-5.82H31.406V-7.3h4.707ZM45.01.234a6.147,6.147,0,0,1-4.771-1.963,7.28,7.28,0,0,1-1.792-5.107,7.714,7.714,0,0,1,1.826-5.391,6.378,6.378,0,0,1,4.971-2.012,6.009,6.009,0,0,1,4.673,1.953,7.307,7.307,0,0,1,1.772,5.107,7.739,7.739,0,0,1-1.816,5.42A6.26,6.26,0,0,1,45.01.234Zm.117-12.988a4.515,4.515,0,0,0-3.584,1.592,6.162,6.162,0,0,0-1.377,4.18,6.205,6.205,0,0,0,1.343,4.165,4.379,4.379,0,0,0,3.5,1.577,4.6,4.6,0,0,0,3.633-1.5,6.146,6.146,0,0,0,1.328-4.209,6.422,6.422,0,0,0-1.289-4.287A4.42,4.42,0,0,0,45.127-12.754Z" transform="translate(305 237)" fill="#707070"/><g transform="translate(305 173)"><path d="M46.64,42.5H5.36L26,17.89Z" fill="#fff"/><path d="M26,21.781,10.719,40H41.281L26,21.781M26,14,52,45H0Z" fill="#707070"/></g></g></svg>